<?xml version="1.0" encoding="UTF-8"?>
<svg xmlns="http://www.w3.org/2000/svg" viewBox="0 0 1200 620" font-family="-apple-system, BlinkMacSystemFont, 'Segoe UI', sans-serif">
  <defs>
    <marker id="arrow" viewBox="0 0 10 10" refX="9" refY="5" markerWidth="6" markerHeight="6" orient="auto">
      <path d="M0,0 L10,5 L0,10 z" fill="#555"/>
    </marker>
    <marker id="arrow-blue" viewBox="0 0 10 10" refX="9" refY="5" markerWidth="6" markerHeight="6" orient="auto">
      <path d="M0,0 L10,5 L0,10 z" fill="#2563eb"/>
    </marker>
    <marker id="arrow-green" viewBox="0 0 10 10" refX="9" refY="5" markerWidth="6" markerHeight="6" orient="auto">
      <path d="M0,0 L10,5 L0,10 z" fill="#059669"/>
    </marker>
    <marker id="arrow-orange" viewBox="0 0 10 10" refX="9" refY="5" markerWidth="6" markerHeight="6" orient="auto">
      <path d="M0,0 L10,5 L0,10 z" fill="#d97706"/>
    </marker>
  </defs>

  <!-- Background -->
  <rect width="1200" height="620" fill="#fafafa"/>

  <!-- Title -->
  <text x="600" y="38" text-anchor="middle" font-size="22" font-weight="700" fill="#111">
    Event-Driven Notification System
  </text>
  <text x="600" y="60" text-anchor="middle" font-size="13" fill="#666">
    Hexagonal architecture · Postgres + Redis · asynq + WebSocket · OpenTelemetry
  </text>

  <!-- ====== CLIENTS (left) ====== -->
  <g>
    <rect x="40" y="120" width="180" height="80" rx="8" fill="#dbeafe" stroke="#2563eb" stroke-width="2"/>
    <text x="130" y="148" text-anchor="middle" font-size="13" font-weight="600" fill="#1e3a8a">HTTP Clients</text>
    <text x="130" y="168" text-anchor="middle" font-size="11" fill="#1e40af">curl · Bruno · SDKs</text>
    <text x="130" y="184" text-anchor="middle" font-size="11" fill="#1e40af">POST /notifications</text>

    <rect x="40" y="220" width="180" height="80" rx="8" fill="#dbeafe" stroke="#2563eb" stroke-width="2"/>
    <text x="130" y="248" text-anchor="middle" font-size="13" font-weight="600" fill="#1e3a8a">WebSocket Clients</text>
    <text x="130" y="268" text-anchor="middle" font-size="11" fill="#1e40af">subscribe(notif_id)</text>
    <text x="130" y="284" text-anchor="middle" font-size="11" fill="#1e40af">live status updates</text>
  </g>

  <!-- ====== API TIER (middle-left) ====== -->
  <g>
    <rect x="290" y="100" width="240" height="220" rx="10" fill="#ecfeff" stroke="#0891b2" stroke-width="2"/>
    <text x="410" y="125" text-anchor="middle" font-size="14" font-weight="700" fill="#155e75">cmd/api</text>

    <!-- middleware chain -->
    <rect x="305" y="140" width="210" height="22" rx="4" fill="#fff" stroke="#0891b2"/>
    <text x="410" y="156" text-anchor="middle" font-size="10" fill="#155e75">recover · correlation · ratelimit · idempotency</text>

    <rect x="305" y="170" width="210" height="22" rx="4" fill="#fff" stroke="#0891b2"/>
    <text x="410" y="186" text-anchor="middle" font-size="10" fill="#155e75">chi router → strict-server (oapi-codegen)</text>

    <rect x="305" y="200" width="210" height="50" rx="4" fill="#fff" stroke="#0891b2"/>
    <text x="410" y="218" text-anchor="middle" font-size="10" fill="#155e75">application use cases</text>
    <text x="410" y="232" text-anchor="middle" font-size="9" fill="#0e7490">Create · Cancel · GetTrace · …</text>
    <text x="410" y="244" text-anchor="middle" font-size="9" fill="#0e7490">(pure go, ports only)</text>

    <rect x="305" y="258" width="100" height="50" rx="4" fill="#fff" stroke="#0891b2"/>
    <text x="355" y="276" text-anchor="middle" font-size="10" fill="#155e75">/metrics</text>
    <text x="355" y="290" text-anchor="middle" font-size="9" fill="#0e7490">prometheus</text>
    <text x="355" y="302" text-anchor="middle" font-size="9" fill="#0e7490">exposition</text>

    <rect x="415" y="258" width="100" height="50" rx="4" fill="#fff" stroke="#0891b2"/>
    <text x="465" y="276" text-anchor="middle" font-size="10" fill="#155e75">/docs</text>
    <text x="465" y="290" text-anchor="middle" font-size="9" fill="#0e7490">Swagger UI</text>
    <text x="465" y="302" text-anchor="middle" font-size="9" fill="#0e7490">+ openapi.yaml</text>
  </g>

  <!-- ====== QUEUE (middle) ====== -->
  <g>
    <rect x="565" y="170" width="160" height="90" rx="8" fill="#fef3c7" stroke="#d97706" stroke-width="2"/>
    <text x="645" y="195" text-anchor="middle" font-size="13" font-weight="700" fill="#92400e">asynq queue</text>
    <text x="645" y="215" text-anchor="middle" font-size="10" fill="#9a3412">priority: high / normal / low</text>
    <text x="645" y="231" text-anchor="middle" font-size="10" fill="#9a3412">deterministic task IDs</text>
    <text x="645" y="247" text-anchor="middle" font-size="10" fill="#9a3412">redis-backed</text>
  </g>

  <!-- ====== WORKER (middle-right) ====== -->
  <g>
    <rect x="760" y="100" width="220" height="220" rx="10" fill="#dcfce7" stroke="#059669" stroke-width="2"/>
    <text x="870" y="125" text-anchor="middle" font-size="14" font-weight="700" fill="#065f46">cmd/worker</text>

    <rect x="775" y="140" width="190" height="22" rx="4" fill="#fff" stroke="#059669"/>
    <text x="870" y="156" text-anchor="middle" font-size="10" fill="#065f46">atomic claim (queued → processing)</text>

    <rect x="775" y="170" width="190" height="22" rx="4" fill="#fff" stroke="#059669"/>
    <text x="870" y="186" text-anchor="middle" font-size="10" fill="#065f46">outbound rate limit / channel</text>

    <rect x="775" y="200" width="190" height="22" rx="4" fill="#fff" stroke="#059669"/>
    <text x="870" y="216" text-anchor="middle" font-size="10" fill="#065f46">circuit breaker</text>

    <rect x="775" y="230" width="190" height="22" rx="4" fill="#fff" stroke="#059669"/>
    <text x="870" y="246" text-anchor="middle" font-size="10" fill="#065f46">asynq-native retry · exponential backoff</text>

    <rect x="775" y="260" width="190" height="50" rx="4" fill="#fff" stroke="#059669"/>
    <text x="870" y="278" text-anchor="middle" font-size="10" fill="#065f46">cmd/reconciler</text>
    <text x="870" y="292" text-anchor="middle" font-size="9" fill="#047857">sweeps stuck / orphan / queued rows</text>
    <text x="870" y="304" text-anchor="middle" font-size="9" fill="#047857">FOR UPDATE SKIP LOCKED</text>
  </g>

  <!-- ====== PROVIDERS (right) ====== -->
  <g>
    <rect x="1015" y="120" width="150" height="180" rx="10" fill="#fce7f3" stroke="#be185d" stroke-width="2"/>
    <text x="1090" y="145" text-anchor="middle" font-size="13" font-weight="700" fill="#9d174d">Providers</text>

    <rect x="1030" y="160" width="120" height="36" rx="6" fill="#fff" stroke="#be185d"/>
    <text x="1090" y="180" text-anchor="middle" font-size="11" fill="#9d174d">SMS</text>

    <rect x="1030" y="206" width="120" height="36" rx="6" fill="#fff" stroke="#be185d"/>
    <text x="1090" y="226" text-anchor="middle" font-size="11" fill="#9d174d">Email</text>

    <rect x="1030" y="252" width="120" height="36" rx="6" fill="#fff" stroke="#be185d"/>
    <text x="1090" y="272" text-anchor="middle" font-size="11" fill="#9d174d">Push</text>
  </g>

  <!-- ====== DATA STORES (bottom) ====== -->
  <g>
    <rect x="290" y="430" width="200" height="100" rx="8" fill="#e0e7ff" stroke="#4f46e5" stroke-width="2"/>
    <text x="390" y="458" text-anchor="middle" font-size="13" font-weight="700" fill="#312e81">Postgres 16</text>
    <text x="390" y="478" text-anchor="middle" font-size="10" fill="#3730a3">notifications · batches</text>
    <text x="390" y="492" text-anchor="middle" font-size="10" fill="#3730a3">templates · notification_logs</text>
    <text x="390" y="508" text-anchor="middle" font-size="10" fill="#3730a3">sqlc-generated queries</text>

    <rect x="565" y="430" width="200" height="100" rx="8" fill="#fee2e2" stroke="#dc2626" stroke-width="2"/>
    <text x="665" y="458" text-anchor="middle" font-size="13" font-weight="700" fill="#7f1d1d">Redis 7</text>
    <text x="665" y="478" text-anchor="middle" font-size="10" fill="#991b1b">idempotency cache (24h)</text>
    <text x="665" y="492" text-anchor="middle" font-size="10" fill="#991b1b">rate limit buckets</text>
    <text x="665" y="508" text-anchor="middle" font-size="10" fill="#991b1b">asynq + pub/sub fan-out</text>
  </g>

  <!-- ====== OBSERVABILITY STRIP ====== -->
  <g>
    <rect x="800" y="430" width="370" height="100" rx="8" fill="#f5f5f4" stroke="#525252" stroke-width="2"/>
    <text x="985" y="455" text-anchor="middle" font-size="13" font-weight="700" fill="#262626">Observability</text>
    <text x="985" y="476" text-anchor="middle" font-size="10" fill="#404040">Prometheus · AlertManager · Grafana · OTel</text>
    <text x="985" y="494" text-anchor="middle" font-size="10" fill="#525252">12 alert rules · 3 dashboards · RUNBOOK</text>
    <text x="985" y="512" text-anchor="middle" font-size="10" fill="#525252">slog JSON · correlation_id end-to-end</text>
  </g>

  <!-- ====== ARROWS ====== -->
  <!-- client → api -->
  <line x1="225" y1="160" x2="285" y2="160" stroke="#2563eb" stroke-width="2" marker-end="url(#arrow-blue)"/>
  <!-- api ← ws clients (response) -->
  <line x1="285" y1="260" x2="225" y2="260" stroke="#2563eb" stroke-width="2" marker-end="url(#arrow-blue)"/>

  <!-- api → queue -->
  <line x1="535" y1="215" x2="560" y2="215" stroke="#d97706" stroke-width="2" marker-end="url(#arrow-orange)"/>

  <!-- queue → worker -->
  <line x1="730" y1="215" x2="755" y2="215" stroke="#059669" stroke-width="2" marker-end="url(#arrow-green)"/>

  <!-- worker → providers -->
  <line x1="985" y1="200" x2="1010" y2="200" stroke="#be185d" stroke-width="2" marker-end="url(#arrow)"/>

  <!-- api → postgres -->
  <line x1="390" y1="325" x2="390" y2="425" stroke="#4f46e5" stroke-width="2" stroke-dasharray="4,3" marker-end="url(#arrow)"/>

  <!-- worker → postgres -->
  <line x1="755" y1="320" x2="490" y2="430" stroke="#4f46e5" stroke-width="2" stroke-dasharray="4,3" marker-end="url(#arrow)"/>

  <!-- api ↔ redis -->
  <line x1="465" y1="325" x2="610" y2="425" stroke="#dc2626" stroke-width="2" stroke-dasharray="4,3" marker-end="url(#arrow)"/>

  <!-- worker ↔ redis (pub/sub) -->
  <line x1="775" y1="320" x2="700" y2="425" stroke="#dc2626" stroke-width="2" stroke-dasharray="4,3" marker-end="url(#arrow)"/>

  <!-- pub/sub fan-out: worker publishes to redis (line above), api subscribes
       (line above), api pushes to ws clients via the response arrow above.
       The redis box's "asynq + pub/sub fan-out" label tells the same story
       without an extra cross-canvas curve. -->

  <!-- everything → observability (subtle) -->
  <line x1="870" y1="325" x2="900" y2="425" stroke="#525252" stroke-width="1" stroke-dasharray="2,3" opacity="0.6"/>

  <!-- ====== LEGEND ====== -->
  <g transform="translate(40, 555)">
    <text x="0" y="0" font-size="10" font-weight="700" fill="#555">Legend:</text>
    <rect x="55" y="-10" width="14" height="14" rx="3" fill="#dbeafe" stroke="#2563eb"/>
    <text x="73" y="0" font-size="10" fill="#333">clients</text>
    <rect x="120" y="-10" width="14" height="14" rx="3" fill="#ecfeff" stroke="#0891b2"/>
    <text x="138" y="0" font-size="10" fill="#333">api</text>
    <rect x="175" y="-10" width="14" height="14" rx="3" fill="#fef3c7" stroke="#d97706"/>
    <text x="193" y="0" font-size="10" fill="#333">queue</text>
    <rect x="240" y="-10" width="14" height="14" rx="3" fill="#dcfce7" stroke="#059669"/>
    <text x="258" y="0" font-size="10" fill="#333">worker</text>
    <rect x="310" y="-10" width="14" height="14" rx="3" fill="#fce7f3" stroke="#be185d"/>
    <text x="328" y="0" font-size="10" fill="#333">providers</text>
    <rect x="385" y="-10" width="14" height="14" rx="3" fill="#e0e7ff" stroke="#4f46e5"/>
    <text x="403" y="0" font-size="10" fill="#333">postgres</text>
    <rect x="460" y="-10" width="14" height="14" rx="3" fill="#fee2e2" stroke="#dc2626"/>
    <text x="478" y="0" font-size="10" fill="#333">redis</text>
    <rect x="525" y="-10" width="14" height="14" rx="3" fill="#f5f5f4" stroke="#525252"/>
    <text x="543" y="0" font-size="10" fill="#333">observability</text>
  </g>

  <!-- footer caption -->
  <text x="600" y="610" text-anchor="middle" font-size="10" fill="#777">
    docs/images/architecture-hero.svg · Senior Go Assessment · afbora/event-driven-notification
  </text>
</svg>
